
      <svg data-logo="logo" xmlns="http://www.w3.org/2000/svg" viewBox="0 0 238 42">
        <g id="logogram" transform="translate(0, 1) rotate(0) "><path d="M40 13.4683C40.0001 10.7823 39.1891 8.1589 37.673 5.9417C36.1569 3.72451 34.0065 2.01688 31.5035 1.04252C29.0005 0.0681476 26.2615 -0.127534 23.6455 0.48109C21.0293 1.08971 18.658 2.47428 16.8421 4.45341H0V40H35.5601V23.3873C36.9557 22.139 38.0726 20.6104 38.8377 18.9012C39.6027 17.192 39.9988 15.3409 40 13.4683ZM33.1579 13.4683C33.1606 14.7553 32.7814 16.0143 32.0683 17.0858C31.3551 18.1572 30.3402 18.9931 29.1518 19.4874C27.9634 19.9819 26.6552 20.1127 25.3924 19.8631C24.1298 19.6137 22.9695 18.9953 22.0584 18.0861C21.1474 17.1769 20.5266 16.0179 20.2745 14.7557C20.0224 13.4936 20.1505 12.185 20.6424 10.9957C21.1343 9.80626 21.968 8.78957 23.0379 8.07423C24.108 7.35888 25.3661 6.97705 26.6532 6.97703C28.376 6.97703 30.0285 7.6605 31.2479 8.87745C32.4675 10.0944 33.1544 11.7455 33.1579 13.4683ZM28.7179 33.1579H6.84211V11.2955H13.5088C13.38 12.0128 13.3123 12.7397 13.3063 13.4683C13.31 17.007 14.7173 20.3997 17.2196 22.902C19.7217 25.4042 23.1144 26.8116 26.6532 26.8151C27.3451 26.8115 28.0355 26.7528 28.7179 26.6397V33.1579Z" fill="#394149"/></g>
        <g id="logotype" transform="translate(46, 1)"><path fill="#111111"
         d="M13.49 33L8.31 33L8.31 7.54L16.31 7.54L20.44 19.23Q20.70 20.05 21.03 21.34Q21.36 22.64 21.71 24.15Q22.05 25.65 22.35 27.07Q22.65 28.49 22.83 29.53L22.83 29.53L21.83 29.53Q22.01 28.51 22.31 27.10Q22.61 25.69 22.95 24.18Q23.29 22.68 23.63 21.36Q23.96 20.05 24.22 19.23L24.22 19.23L28.29 7.54L36.32 7.54L36.32 33L31.07 33L31.07 20.99Q31.07 20.17 31.10 18.92Q31.14 17.67 31.17 16.23Q31.21 14.78 31.24 13.32Q31.28 11.86 31.29 10.56L31.29 10.56L31.62 10.56Q31.29 11.98 30.90 13.49Q30.51 15.00 30.11 16.42Q29.70 17.84 29.34 19.03Q28.99 20.22 28.73 20.99L28.73 20.99L24.51 33L20.12 33L15.83 20.99Q15.57 20.22 15.21 19.05Q14.85 17.88 14.45 16.46Q14.05 15.04 13.64 13.53Q13.23 12.01 12.85 10.56L12.85 10.56L13.26 10.56Q13.28 11.79 13.31 13.24Q13.35 14.70 13.39 16.16Q13.43 17.62 13.46 18.88Q13.49 20.13 13.49 20.99L13.49 20.99L13.49 33ZM47.06 33.38L47.06 33.38Q44.19 33.38 42.09 32.14Q39.99 30.90 38.85 28.68Q37.72 26.47 37.72 23.53L37.72 23.53Q37.72 20.56 38.85 18.35Q39.99 16.13 42.09 14.89Q44.19 13.65 47.06 13.65L47.06 13.65Q49.95 13.65 52.05 14.89Q54.14 16.13 55.28 18.35Q56.41 20.56 56.41 23.53L56.41 23.53Q56.41 26.47 55.28 28.68Q54.14 30.90 52.05 32.14Q49.95 33.38 47.06 33.38ZM47.06 29.34L47.06 29.34Q48.43 29.34 49.35 28.58Q50.28 27.82 50.74 26.50Q51.20 25.17 51.20 23.52L51.20 23.52Q51.20 21.82 50.74 20.51Q50.28 19.19 49.35 18.44Q48.43 17.69 47.06 17.69L47.06 17.69Q45.70 17.69 44.78 18.44Q43.87 19.19 43.41 20.51Q42.95 21.82 42.95 23.52L42.95 23.52Q42.95 25.17 43.41 26.50Q43.87 27.82 44.78 28.58Q45.70 29.34 47.06 29.34ZM62.84 21.94L62.84 21.94L62.84 33L57.71 33L57.71 13.89L62.55 13.89L62.63 18.66L62.32 18.66Q63.08 16.27 64.61 14.96Q66.14 13.65 68.56 13.65L68.56 13.65Q70.54 13.65 72.01 14.52Q73.48 15.38 74.30 17.00Q75.12 18.61 75.12 20.85L75.12 20.85L75.12 33L70.00 33L70.00 21.74Q70.00 19.96 69.08 18.95Q68.17 17.94 66.55 17.94L66.55 17.94Q65.47 17.94 64.62 18.41Q63.78 18.88 63.31 19.77Q62.84 20.66 62.84 21.94ZM85.85 33.38L85.85 33.38Q82.93 33.38 80.81 32.18Q78.69 30.98 77.56 28.78Q76.42 26.57 76.42 23.55L76.42 23.55Q76.42 20.59 77.55 18.37Q78.68 16.15 80.74 14.90Q82.81 13.65 85.60 13.65L85.60 13.65Q87.48 13.65 89.10 14.25Q90.73 14.85 91.96 16.06Q93.19 17.26 93.88 19.07Q94.57 20.88 94.57 23.34L94.57 23.34L94.57 24.78L78.52 24.78L78.52 21.57L92.06 21.57L89.67 22.42Q89.67 20.93 89.21 19.83Q88.76 18.73 87.86 18.12Q86.97 17.52 85.63 17.52L85.63 17.52Q84.32 17.52 83.39 18.13Q82.45 18.75 81.98 19.80Q81.50 20.85 81.50 22.20L81.50 22.20L81.50 24.47Q81.50 26.13 82.05 27.26Q82.61 28.39 83.61 28.95Q84.61 29.51 85.94 29.51L85.94 29.51Q86.85 29.51 87.58 29.26Q88.32 29.00 88.84 28.50Q89.36 27.99 89.63 27.26L89.63 27.26L94.28 28.13Q93.82 29.70 92.67 30.89Q91.53 32.08 89.81 32.73Q88.09 33.38 85.85 33.38ZM95.66 39.77L95.66 39.77L96.84 35.91L97.47 36.06Q98.50 36.33 99.30 36.21Q100.11 36.09 100.59 35.56Q101.08 35.03 101.18 34.08L101.18 34.08L101.32 33.05L94.14 13.89L99.59 13.89L102.81 23.81Q103.39 25.69 103.75 27.57Q104.12 29.45 104.60 31.50L104.60 31.50L103.40 31.50Q103.87 29.45 104.33 27.56Q104.79 25.67 105.40 23.81L105.40 23.81L108.75 13.89L114.14 13.89L106.02 35.26Q105.44 36.79 104.53 37.92Q103.63 39.05 102.28 39.67Q100.93 40.28 99.01 40.28L99.01 40.28Q97.99 40.28 97.10 40.14Q96.21 39.99 95.66 39.77ZM119.89 33L114.72 33L114.72 7.54L122.71 7.54L126.85 19.23Q127.11 20.05 127.44 21.34Q127.77 22.64 128.11 24.15Q128.46 25.65 128.75 27.07Q129.05 28.49 129.24 29.53L129.24 29.53L128.23 29.53Q128.42 28.51 128.72 27.10Q129.02 25.69 129.36 24.18Q129.70 22.68 130.04 21.36Q130.37 20.05 130.63 19.23L130.63 19.23L134.69 7.54L142.73 7.54L142.73 33L137.48 33L137.48 20.99Q137.48 20.17 137.51 18.92Q137.55 17.67 137.58 16.23Q137.62 14.78 137.65 13.32Q137.68 11.86 137.70 10.56L137.70 10.56L138.03 10.56Q137.70 11.98 137.31 13.49Q136.92 15.00 136.51 16.42Q136.11 17.84 135.75 19.03Q135.39 20.22 135.14 20.99L135.14 20.99L130.92 33L126.52 33L122.23 20.99Q121.98 20.22 121.62 19.05Q121.26 17.88 120.86 16.46Q120.46 15.04 120.05 13.53Q119.64 12.01 119.26 10.56L119.26 10.56L119.67 10.56Q119.69 11.79 119.72 13.24Q119.76 14.70 119.80 16.16Q119.84 17.62 119.87 18.88Q119.89 20.13 119.89 20.99L119.89 20.99L119.89 33ZM150.26 33.38L150.26 33.38Q148.45 33.38 147.00 32.74Q145.56 32.09 144.73 30.82Q143.90 29.55 143.90 27.65L143.90 27.65Q143.90 26.06 144.49 24.98Q145.08 23.91 146.10 23.26Q147.12 22.61 148.41 22.27Q149.70 21.93 151.11 21.79L151.11 21.79Q152.77 21.62 153.79 21.47Q154.81 21.33 155.28 21.01Q155.75 20.70 155.75 20.08L155.75 20.08L155.75 19.99Q155.75 19.17 155.40 18.61Q155.06 18.05 154.40 17.75Q153.73 17.45 152.76 17.45L152.76 17.45Q151.76 17.45 151.03 17.75Q150.29 18.05 149.83 18.54Q149.37 19.04 149.15 19.65L149.15 19.65L144.45 18.87Q144.95 17.21 146.09 16.05Q147.24 14.88 148.94 14.27Q150.64 13.65 152.76 13.65L152.76 13.65Q154.31 13.65 155.76 14.02Q157.22 14.39 158.37 15.16Q159.52 15.93 160.20 17.16Q160.87 18.39 160.87 20.13L160.87 20.13L160.87 33L156.02 33L156.02 30.35L155.85 30.35Q155.39 31.24 154.62 31.91Q153.85 32.59 152.76 32.98Q151.68 33.38 150.26 33.38ZM151.71 29.77L151.71 29.77Q152.93 29.77 153.84 29.29Q154.75 28.81 155.27 27.99Q155.78 27.17 155.78 26.16L155.78 26.16L155.78 24.10Q155.56 24.27 155.10 24.40Q154.64 24.54 154.07 24.64Q153.51 24.75 152.96 24.83Q152.41 24.92 151.99 24.97L151.99 24.97Q151.05 25.10 150.33 25.41Q149.61 25.72 149.22 26.22Q148.82 26.73 148.82 27.51L148.82 27.51Q148.82 28.25 149.20 28.75Q149.58 29.26 150.22 29.51Q150.86 29.77 151.71 29.77ZM161.13 13.89L172.46 13.89L172.46 17.81L161.13 17.81L161.13 13.89ZM163.76 27.86L163.76 9.35L168.89 9.35L168.89 27.41Q168.89 28.32 169.29 28.75Q169.69 29.19 170.63 29.19L170.63 29.19Q170.92 29.19 171.45 29.11Q171.98 29.04 172.25 28.97L172.25 28.97L172.99 32.81Q172.13 33.07 171.29 33.17Q170.44 33.27 169.67 33.27L169.67 33.27Q166.80 33.27 165.28 31.87Q163.76 30.47 163.76 27.86L163.76 27.86ZM182.15 33.38L182.15 33.38Q179.22 33.38 177.10 32.18Q174.99 30.98 173.85 28.78Q172.71 26.57 172.71 23.55L172.71 23.55Q172.71 20.59 173.84 18.37Q174.97 16.15 177.04 14.90Q179.10 13.65 181.89 13.65L181.89 13.65Q183.77 13.65 185.39 14.25Q187.02 14.85 188.25 16.06Q189.48 17.26 190.17 19.07Q190.86 20.88 190.86 23.34L190.86 23.34L190.86 24.78L174.81 24.78L174.81 21.57L188.35 21.57L185.96 22.42Q185.96 20.93 185.50 19.83Q185.05 18.73 184.15 18.12Q183.26 17.52 181.92 17.52L181.92 17.52Q180.61 17.52 179.68 18.13Q178.74 18.75 178.27 19.80Q177.79 20.85 177.79 22.20L177.79 22.20L177.79 24.47Q177.79 26.13 178.34 27.26Q178.90 28.39 179.90 28.95Q180.90 29.51 182.23 29.51L182.23 29.51Q183.14 29.51 183.87 29.26Q184.61 29.00 185.13 28.50Q185.65 27.99 185.92 27.26L185.92 27.26L190.57 28.13Q190.11 29.70 188.96 30.89Q187.82 32.08 186.10 32.73Q184.38 33.38 182.15 33.38Z"/></g>
        
      </svg>
    